<?xml version="1.0" encoding="UTF-8" standalone="no"?>
<!-- Created with Inkscape (http://www.inkscape.org/) -->

<svg
   width="13mm"
   height="13mm"
   viewBox="0 0 13 13"
   version="1.1"
   id="svg1"
   xml:space="preserve"
   inkscape:version="1.4.3 (fcd0343856, 2026-01-01)"
   sodipodi:docname="morphql.inkscape.svg"
   xmlns:inkscape="http://www.inkscape.org/namespaces/inkscape"
   xmlns:sodipodi="http://sodipodi.sourceforge.net/DTD/sodipodi-0.dtd"
   xmlns="http://www.w3.org/2000/svg"
   xmlns:svg="http://www.w3.org/2000/svg"><sodipodi:namedview
     id="namedview1"
     pagecolor="#ffffff"
     bordercolor="#000000"
     borderopacity="0.25"
     inkscape:showpageshadow="2"
     inkscape:pageopacity="0.0"
     inkscape:pagecheckerboard="0"
     inkscape:deskcolor="#d1d1d1"
     inkscape:document-units="mm"
     showgrid="false"
     inkscape:zoom="2.8614198"
     inkscape:cx="96.280876"
     inkscape:cy="67.623773"
     inkscape:window-width="1333"
     inkscape:window-height="991"
     inkscape:window-x="26"
     inkscape:window-y="23"
     inkscape:window-maximized="0"
     inkscape:current-layer="layer1" /><defs
     id="defs1" /><g
     inkscape:label="Layer 1"
     inkscape:groupmode="layer"
     id="layer1"><path
       style="fill:#000000;stroke-width:0.196617"
       d="M 5.7463112,10.576453 V 9.6953691 H 5.8608896 5.975468 v 0.093116 c 0,0.051209 0.00416,0.093118 0.00924,0.093118 0.00508,0 0.027635,-0.022614 0.050116,-0.050249 0.022481,-0.027635 0.088212,-0.074348 0.1460688,-0.103809 0.091131,-0.046403 0.1224478,-0.053565 0.2342467,-0.053565 0.1034337,0 0.1465262,0.00843 0.2170692,0.042444 0.128311,0.061875 0.2182892,0.1508724 0.2767821,0.2737666 0.1703499,0.3579063 0.050423,0.7905283 -0.2598737,0.9374633 -0.073681,0.03489 -0.1176413,0.04371 -0.217742,0.04371 -0.1081528,0 -0.1401426,-0.0075 -0.2323641,-0.05446 -0.058819,-0.02994 -0.1258132,-0.07766 -0.1488755,-0.106 l -0.041931,-0.05154 -0.00409,0.166369 c -0.00225,0.0915 -0.00409,0.246363 -0.00409,0.344136 v 0.177768 l -0.1268546,0.0049 -0.1268547,0.0049 z m 0.7218566,0.148846 c 0.1546846,-0.0549 0.2451828,-0.202247 0.2457879,-0.400211 5.8e-4,-0.186593 -0.086088,-0.3408822 -0.2264513,-0.4031796 -0.1420643,-0.063056 -0.3265885,-0.00738 -0.427437,0.1291776 l -0.054531,0.07379 0.00543,0.18734 c 0.00519,0.179376 0.00767,0.190686 0.058287,0.266071 0.090967,0.135485 0.2579671,0.197031 0.3989178,0.147013 z m -2.6168799,0.23794 c -0.1854764,-0.03195 -0.3520198,-0.163311 -0.4387862,-0.346096 -0.044441,-0.09361 -0.047768,-0.114276 -0.047579,-0.295354 1.933e-4,-0.18669 0.0024,-0.199074 0.053677,-0.301014 0.097366,-0.1935803 0.2581556,-0.3124113 0.4638661,-0.3428174 0.3879762,-0.057347 0.7093391,0.2050078 0.7312782,0.5970014 0.019566,0.349593 -0.1660466,0.612684 -0.4809253,0.681679 -0.1256177,0.02753 -0.1559321,0.02824 -0.2815309,0.0065 z m 0.3216157,-0.274042 c 0.2387574,-0.163424 0.2387574,-0.571394 0,-0.7348202 -0.092361,-0.063225 -0.2425774,-0.074279 -0.3364015,-0.024776 -0.2863214,0.1510862 -0.2872807,0.6304182 -0.00157,0.7805532 0.098866,0.05195 0.2446589,0.04291 0.3379636,-0.02096 z m 4.9716142,0.2405 C 8.558092,10.721084 8.391106,9.9068961 8.8439005,9.4639611 9.0916236,9.2216321 9.452381,9.1634274 9.7553395,9.3169099 c 0.2969345,0.1504297 0.4609955,0.4280544 0.4610085,0.7801181 8e-6,0.218857 -0.04042,0.349468 -0.167527,0.54126 l -0.04706,0.07101 0.105193,0.123684 0.105195,0.123687 -0.133678,0.0051 -0.1336787,0.0051 -0.055166,-0.06207 -0.055166,-0.06207 -0.059411,0.03421 c -0.1630499,0.09385 -0.4480522,0.117732 -0.6305275,0.05283 z m 0.4524445,-0.242844 c 0.033759,-0.01481 0.061354,-0.03253 0.061323,-0.03939 -3.1e-5,-0.0068 -0.051591,-0.07083 -0.1145771,-0.142178 -0.062988,-0.07134 -0.1145229,-0.134192 -0.1145229,-0.139674 0,-0.0055 0.056805,-0.01 0.1262347,-0.01 0.1260606,0 0.1263313,9.7e-5 0.1956447,0.07045 0.082773,0.08402 0.1013554,0.07635 0.1516436,-0.06268 C 10.022685,10.031755 9.9038686,9.6628845 9.6325287,9.524762 9.5255996,9.4703282 9.2745378,9.4651353 9.1836606,9.5154778 9.0611591,9.5833395 8.9895122,9.660497 8.9264529,9.7924713 c -0.059887,0.1253301 -0.061975,0.1357191 -0.061961,0.3083457 1.16e-5,0.159229 0.00487,0.189387 0.044763,0.277475 0.074638,0.164835 0.1899203,0.279446 0.3283094,0.326395 0.085311,0.02895 0.2740871,0.01957 0.3593983,-0.01783 z M 1.3759667,10.101695 V 9.2551831 l 0.1514071,5.399e-4 0.151407,5.398e-4 0.087339,0.1645217 c 0.265933,0.5009423 0.4683973,0.8651175 0.4763767,0.8568645 0.00499,-0.0051 0.1307666,-0.235425 0.2795051,-0.5116997 l 0.2704336,-0.5023175 0.1511032,-0.00486 0.1511031,-0.00486 V 10.10105 10.948198 H 2.963695 2.8327482 v -0.612882 c 0,-0.3793779 -0.00582,-0.6067457 -0.015269,-0.5967896 -0.014701,0.015487 -0.3307036,0.5983626 -0.442409,0.8160376 l -0.054301,0.105812 h -0.077557 c -0.042656,0 -0.084914,-0.0095 -0.093906,-0.02116 C 2.1403162,10.627582 2.0444601,10.454254 1.9362967,10.254054 1.8281334,10.053851 1.7185781,9.8519583 1.6928403,9.8054004 l -0.046796,-0.08465 -0.0043,0.6137206 -0.0043,0.613721 H 1.5067091 1.3759667 Z m 3.4864547,0.220094 V 9.6953691 h 0.1227625 0.1227625 l 5.027e-4,0.1227446 c 4.06e-4,0.098744 0.00402,0.1161233 0.018525,0.088879 C 5.1914971,9.7857899 5.3568825,9.6788935 5.4803321,9.6786 l 0.069565,-1.654e-4 V 9.793507 9.9085796 l -0.1060955,0.0188 C 5.316773,9.949886 5.2360098,9.9980864 5.1718605,10.089684 l -0.04754,0.06788 v 0.39532 0.39532 H 4.9933738 4.8624272 Z M 7.2358297,10.067834 V 9.1874622 h 0.1227625 0.1227625 l 0.00271,0.2835812 c 0.00155,0.1559699 0.00288,0.3121518 0.00309,0.3470703 1.933e-4,0.034916 0.00499,0.063492 0.010594,0.063492 0.00561,0 0.031837,-0.023535 0.058278,-0.052299 0.07279,-0.079181 0.1682837,-0.1302169 0.277233,-0.1481472 0.2035305,-0.033496 0.3720206,0.036426 0.4459546,0.1850683 0.055606,0.1117972 0.068948,0.2442782 0.069319,0.6883572 l 3.866e-4,0.393626 H 8.2192153 8.0895085 l -0.00534,-0.427488 c -0.00487,-0.391286 -0.0081,-0.432356 -0.03807,-0.484974 -0.05453,-0.095752 -0.1117197,-0.1288283 -0.2216163,-0.1281635 -0.080064,4.804e-4 -0.108147,0.00908 -0.1661373,0.051321 -0.038381,0.027906 -0.092056,0.087976 -0.1192768,0.1335035 l -0.049494,0.08276 v 0.386503 0.386502 l -0.1268533,1.6e-5 -0.1268552,1.5e-5 z m 3.2736653,0.03385 V 9.2551831 h 0.130946 0.130948 v 0.7279995 0.7279994 h 0.441945 0.441945 v 0.118512 0.118512 H 11.082386 10.509495 Z M 2.5996176,8.3581385 C 2.2963347,8.3020933 2.027671,8.1146994 1.9055063,7.8739931 1.8170226,7.6996499 1.7945191,7.6054251 1.7946415,7.4097881 1.794771,7.2024368 1.8096978,7.1525372 2.0959929,6.4024395 2.1883977,6.1603373 2.3245544,5.802263 2.3985634,5.6067188 2.4725725,5.4111746 2.6564126,4.9273934 2.8070965,4.5316493 3.0887963,3.7918163 3.144885,3.6437937 3.4527782,2.8276463 3.6690434,2.2543821 3.6952989,2.1989739 3.8092093,2.0754509 3.9726435,1.8982254 4.2040914,1.8047884 4.4859497,1.8022461 c 0.2923207,-0.00264 0.5127574,0.090898 0.6955798,0.2951404 0.1003122,0.1120657 0.1652729,0.22915 0.303233,0.5465425 0.099298,0.2284468 0.5068112,1.0772274 0.6463161,1.346168 L 6.288691,4.2939448 6.195423,4.4643235 6.1021554,4.6347022 6.0493813,4.553548 C 5.9568413,4.4112432 5.8163711,4.1504242 5.6289445,3.7728995 5.5287036,3.5709889 5.432277,3.3891765 5.4146632,3.3688723 5.370222,3.3176427 5.2719473,3.3028785 5.2069168,3.3376615 c -0.058269,0.031166 -0.1151866,0.117188 -0.1152777,0.1742236 -1.56e-4,0.097894 0.4777936,0.9861016 0.7057541,1.3115513 0.043926,0.062712 0.079773,0.1198505 0.079662,0.1269767 -1.116e-4,0.00712 -0.027733,0.031679 -0.061381,0.054562 -0.045184,0.030726 -0.089631,0.043374 -0.1700073,0.048372 L 5.5368385,5.0601159 5.4518725,4.9355581 C 5.3425517,4.7752943 5.090408,4.3388418 4.969121,4.0999294 4.8239125,3.8138961 4.7803384,3.7430825 4.7309859,3.7129286 c -0.087397,-0.053399 -0.2116968,-0.023685 -0.267158,0.063865 -0.055747,0.088001 -0.03785,0.1495987 0.1305152,0.4491981 0.5407541,0.9622532 0.6616719,1.1074142 0.9661028,1.1598 0.089989,0.015485 0.238484,-0.014293 0.3495487,-0.070096 C 6.0344056,5.2531886 6.1865853,5.0968723 6.3009305,4.9141351 6.5305911,4.547105 7.1344202,3.3503512 7.4719996,2.5931391 7.6571255,2.1778908 7.7769146,2.0180818 7.9841628,1.9098716 8.1371152,1.8300114 8.2528406,1.8022027 8.4322324,1.8022027 c 0.198187,0 0.2959465,0.022263 0.4666657,0.1062718 0.1021925,0.050289 0.1545183,0.089714 0.2280211,0.1718022 0.1146003,0.1279864 0.1625975,0.2302496 0.3678545,0.7837458 0.082875,0.223479 0.2058601,0.551079 0.2732983,0.7279998 0.1575423,0.413292 0.404627,1.0594867 0.537309,1.4052092 0.297464,0.7750817 0.790733,2.0930553 0.811054,2.1670691 0.01419,0.05168 0.02276,0.1571887 0.022,0.2708838 -0.0014,0.2179162 -0.03122,0.3179033 -0.150352,0.5050103 -0.112674,0.176967 -0.272124,0.2961748 -0.50314,0.3761618 C 10.154145,8.430892 9.7796426,8.3334335 9.522518,8.0659 9.4029531,7.941494 9.4082967,7.951902 8.7988495,6.6563937 8.7156204,6.479473 8.5729627,6.1763614 8.4818323,5.9828127 8.3907,5.7892638 8.3161397,5.6220324 8.3161397,5.6111877 c 0,-0.019447 0.1949139,-0.3346075 0.2069408,-0.3346075 0.0034,0 0.1663229,0.3324921 0.3620334,0.7388716 C 9.2743367,6.8236493 9.2699984,6.8170441 9.4118056,6.8171676 9.5510936,6.817289 9.6553025,6.6963519 9.6363469,6.5565812 9.6311657,6.5183618 9.4970665,6.1823475 9.338353,5.8098824 8.9633377,4.9298031 8.9807681,4.9728886 8.9941482,4.9590477 c 0.02017,-0.02086 0.2108499,-0.013571 0.2934004,0.011216 0.08859,0.026602 0.074883,0.00296 0.2757497,0.4756197 0.2599414,0.6116675 0.360411,0.8443646 0.387425,0.897302 0.04185,0.082006 0.1553107,0.1444474 0.2345397,0.1290736 0.107687,-0.020897 0.193286,-0.1259035 0.193286,-0.2371101 0,-0.022772 -0.05187,-0.1811027 -0.115267,-0.3518461 C 9.9903593,5.148256 9.9516593,5.0710169 9.7668347,4.892486 9.3681079,4.5073378 8.7972004,4.526162 8.3969116,4.9376553 8.2719896,5.0660752 8.2423217,5.1089487 7.9808067,5.5389998 7.6645898,6.059008 7.2906572,6.6455939 7.2062797,6.7539997 7.0455208,6.9605395 6.8636854,7.0807742 6.6369517,7.1304561 6.4951543,7.1615271 6.4382834,7.1615306 6.2946512,7.1304758 6.0387982,7.0751587 5.8215983,6.9053439 5.6093465,6.5946804 5.5144094,6.455725 5.466282,6.3799814 5.148339,5.869139 4.9732692,5.587853 4.515236,4.8052471 4.3952777,4.5824418 4.2598623,4.3309272 4.1922397,4.2313625 4.0872043,4.128848 3.970497,4.0149417 3.8838074,3.9738055 3.759458,3.9733254 3.6100313,3.9727455 3.5400998,4.0019205 3.4372523,4.1077334 3.2845217,4.2648679 3.2452375,4.3511201 2.8701933,5.3527672 2.5576862,6.1873934 2.5513909,6.2064081 2.563346,6.2795983 2.5838841,6.4053358 2.7042364,6.4946278 2.8222962,6.4717194 2.9382325,6.4492229 2.9641047,6.4054315 3.223315,5.7929531 c 0.3025796,-0.7149538 0.6079201,-1.41771 0.6237999,-1.435706 0.00658,-0.00746 0.034554,0.013037 0.062155,0.045552 0.052159,0.061445 0.1674711,0.2549602 0.1674711,0.2810477 0,0.00821 -0.072772,0.181132 -0.1617146,0.3842557 C 3.6416179,5.6925 3.3076372,6.49025 3.2973356,6.5435261 c -0.013376,0.069182 0.017562,0.1569709 0.075583,0.2144665 0.037652,0.037312 0.067984,0.04961 0.1369447,0.055525 0.1452323,0.012458 0.1539546,-5.998e-4 0.5538899,-0.8290675 L 4.4126475,5.2617131 4.514772,5.4278648 c 0.056168,0.091384 0.1021245,0.1750241 0.1021245,0.1858684 0,0.010844 -0.1538822,0.3451122 -0.3419601,0.7428171 C 4.0868585,6.7542553 3.8403021,7.2759953 3.7270331,7.5159723 3.5275135,7.9386845 3.5173727,7.9561115 3.4019263,8.07467 3.1890772,8.2932568 2.8660731,8.4073801 2.5996176,8.3581403 Z M 6.6711222,6.7476231 C 6.8558305,6.6769182 6.9733132,6.5165574 7.5877482,5.4964575 7.9951457,4.8200875 8.1087194,4.6459258 8.2268884,4.5163603 8.4218797,4.3025648 8.6209328,4.1807305 8.8972161,4.1060744 c 0.1527804,-0.041284 0.4480908,-0.041179 0.6015362,2.2e-4 0.060766,0.016393 0.1104863,0.023269 0.1104863,0.01528 0,-0.022967 -0.065242,-0.1498944 -0.1198993,-0.2332695 C 9.3575271,3.6872435 9.1653236,3.5001185 9.0091407,3.4207946 8.7959322,3.3125075 8.534191,3.3478444 8.3446128,3.5105102 8.2312228,3.6078051 8.2034495,3.6525004 7.8601804,4.2901047 7.4386372,5.0731023 7.0865911,5.6753615 6.8827339,5.962257 6.6529747,6.2856085 6.3691884,6.4621114 6.0695953,6.4679945 c -0.060762,0.0012 -0.110481,0.00873 -0.1104862,0.016725 -1.9e-5,0.029006 0.1995611,0.2125598 0.2688326,0.2472448 0.1440016,0.072103 0.2829107,0.077012 0.4431805,0.015663 z M 6.2827443,6.0481521 C 6.4608272,5.9639598 6.5934552,5.7918569 6.9686715,5.1580679 7.2007602,4.7660416 7.4605566,4.297546 7.6563444,3.9179789 7.8955109,3.4543116 8.0087424,3.3014736 8.2154764,3.1632675 8.3654013,3.0630405 8.4913846,3.0230007 8.6902308,3.0123829 c 0.1800994,-0.00962 0.2956372,0.00822 0.4252164,0.065681 0.040326,0.017878 0.079322,0.030364 0.086655,0.027745 C 9.2256632,3.0973923 8.9801746,2.4922687 8.9172042,2.4035421 8.8022037,2.241502 8.6361883,2.1554018 8.4389022,2.1554812 8.2580991,2.1555538 8.1455211,2.2024504 8.0237233,2.3284326 7.9468894,2.4079041 7.9154274,2.4606001 7.8353553,2.6439306 7.6977009,2.9591038 7.1776016,4.0433459 7.0394735,4.3030912 6.6390029,5.0561679 6.5214139,5.2487152 6.3638216,5.4094291 6.138315,5.6394035 5.9228199,5.7336955 5.6227431,5.7336955 c -0.076079,0 -0.1383251,0.00427 -0.1383251,0.00948 0,0.023914 0.1235567,0.1739995 0.1851773,0.2249368 0.1378712,0.1139677 0.2067804,0.1380551 0.3795302,0.1326648 0.1037677,-0.00325 0.1522566,-0.014162 0.2336188,-0.052626 z"
       id="path1" /></g></svg>
