<?xml version="1.0" encoding="UTF-8" standalone="no"?>
<!-- Created with Inkscape (http://www.inkscape.org/) -->

<svg
   width="13mm"
   height="13mm"
   viewBox="0 0 13 13"
   version="1.1"
   id="svg1"
   xml:space="preserve"
   xmlns="http://www.w3.org/2000/svg"
   xmlns:svg="http://www.w3.org/2000/svg"><defs
     id="defs1" /><g
     id="layer1"><path
       id="path1"
       style="fill:#000000;stroke-width:0.263599"
       d="m 9.0570433,1.8673404 c -0.2289765,0 -0.3766445,0.039631 -0.5718736,0.1520884 C 8.2206371,2.1718079 8.067801,2.3966994 7.8315055,2.9814426 7.4006174,4.0477313 6.6299906,5.7326804 6.3368508,6.2495238 6.1908999,6.5068502 5.9969916,6.7269223 5.8381927,6.8149434 5.6964293,6.8935239 5.5065056,6.9357157 5.3916431,6.91391 5.003066,6.8401416 4.8490709,6.6359838 4.1588498,5.2809609 3.9439476,4.8590719 3.9208151,4.7725143 3.9919708,4.6485933 4.0627615,4.5253074 4.2214304,4.4831648 4.3329844,4.5583587 c 0.062993,0.042463 0.1187311,0.1422584 0.3040757,0.545044 0.1548113,0.336431 0.4765293,0.9510041 0.6160669,1.1766839 l 0.1081739,0.1753747 0.1391756,-0.00947 c 0.102592,-0.00704 0.1593355,-0.025136 0.2170087,-0.068404 0.038922,-0.029203 0.071296,-0.060453 0.077173,-0.073497 v -7.278e-4 l 6.596e-4,-7.278e-4 h 6.595e-4 V 6.301918 6.3011903 C 5.796119,6.29115 5.7504658,6.2104867 5.6943984,6.1221772 5.4034285,5.6638863 4.793185,4.4131375 4.7933842,4.2752854 4.7935004,4.1949689 4.8661001,4.0739393 4.940475,4.030052 5.023481,3.981072 5.1489095,4.001573 5.2056345,4.073713 5.2281175,4.102305 5.3514207,4.3584452 5.4793686,4.6427711 5.718601,5.1743928 5.8975054,5.5419289 6.0156239,5.7423193 L 6.0829032,5.8565684 6.2022922,5.6164286 6.3210203,5.3762891 6.1198421,4.948404 C 5.9417773,4.5696879 5.4220859,3.3744503 5.2953414,3.0527567 5.1192485,2.6058119 5.036195,2.4413907 4.908156,2.2835824 4.6748006,1.9959729 4.3934532,1.8643506 4.0203337,1.8680682 3.6605684,1.8716481 3.3648651,2.0027265 3.156257,2.2522914 3.0108611,2.4262336 2.9778342,2.5045589 2.7017922,3.3118164 2.3087958,4.4610965 2.2368546,4.6692131 1.8772916,5.711029 1.6849579,6.2683068 1.4506727,6.9500029 1.3562071,7.2253638 1.2617417,7.5007247 1.0876272,8.0043647 0.9696812,8.3452875 0.60425283,9.4015579 0.58529946,9.4723067 0.58513422,9.764294 c -1.5631e-4,0.275492 0.0282135,0.407965 0.14115447,0.653471 0.15593161,0.338957 0.49939131,0.60293 0.88650301,0.68185 0.3401051,0.06934 0.7520183,-0.0917 1.0237001,-0.399504 C 2.783848,10.533159 2.7967127,10.508725 3.0513805,9.9134717 3.1959576,9.5755416 3.5111531,8.8412893 3.7512166,8.2812502 3.9912802,7.7212112 4.1872127,7.2500941 4.1872127,7.2348238 c 0,-0.015271 -0.058249,-0.1325573 -0.1299414,-0.2612428 L 3.9266705,6.7392631 3.48144,7.7573093 C 2.9709606,8.9239386 2.9597236,8.9420764 2.7743483,8.9245333 2.6863265,8.9162039 2.6476133,8.8992117 2.5995541,8.8466698 2.5254959,8.7657058 2.4861792,8.6413689 2.5032524,8.5439485 2.5164014,8.4689262 2.9424951,7.3456395 3.2914751,6.4663772 3.4050019,6.180343 3.49793,5.9372604 3.49793,5.9256993 c 0,-0.036736 -0.1471345,-0.3093411 -0.2137106,-0.3958665 -0.030826,-0.040063 -0.062251,-0.067108 -0.075194,-0.06622 h -6.595e-4 -6.597e-4 -6.596e-4 l -6.596e-4,7.275e-4 -6.596e-4,7.278e-4 h -6.596e-4 v 7.277e-4 C 3.1847984,5.4911372 2.7944841,6.4805527 2.40827,7.4873343 2.0774127,8.3498123 2.0444017,8.4118474 1.89642,8.4435265 1.7457279,8.4757855 1.592175,8.3498843 1.56596,8.1728236 1.5507005,8.069759 1.5588771,8.0426391 1.9577628,6.8673376 2.436471,5.4568411 2.4863985,5.3355918 2.6813446,5.1143185 2.8126196,4.9653152 2.9022063,4.9243012 3.0929353,4.9251177 c 0.1587202,6.761e-4 0.269221,0.058636 0.4181867,0.2190364 0.1340678,0.1443585 0.2202771,0.2847397 0.393122,0.6389168 0.1531154,0.3137493 0.7382375,1.4151341 0.9616975,1.8112347 0.405824,0.7193564 0.4671855,0.8260109 0.5883637,1.0216847 0.2709192,0.4374692 0.5480583,0.6767241 0.8746304,0.7546204 0.1833328,0.043731 0.2556646,0.043754 0.4366555,0 C 7.0549951,9.3006497 7.2872774,9.1316929 7.4924709,8.8408483 7.6001707,8.6881937 8.0775912,7.8622994 8.481212,7.1300357 8.8150111,6.5244475 8.8527394,6.4638358 9.0121906,6.2829978 9.5231211,5.7035424 10.251854,5.6773315 10.760791,6.2196883 c 0.235912,0.2514032 0.285517,0.3599166 0.633875,1.3949927 0.08092,0.2404369 0.147092,0.4634937 0.147092,0.4955607 0,0.1565987 -0.109233,0.3045857 -0.24669,0.3340123 -0.101132,0.021649 -0.246041,-0.066445 -0.299459,-0.1819238 -0.03448,-0.074545 -0.16291,-0.4026713 -0.4947,-1.2640075 -0.256388,-0.6655886 -0.238491,-0.6320196 -0.351567,-0.66948 -0.105368,-0.034904 -0.3489083,-0.045384 -0.3746533,-0.016009 -0.017079,0.01949 -0.039377,-0.040792 0.4392943,1.1985148 0.202582,0.5244968 0.373316,0.9977006 0.37993,1.0515203 0.02419,0.1968219 -0.108478,0.3669295 -0.286267,0.3667586 -0.181003,-1.74e-4 -0.175327,0.00943 -0.672133,-1.128656 C 9.3857072,7.2287168 9.1774729,6.7603662 9.173133,6.7603662 c -0.015352,0 -0.2638403,0.4434343 -0.2638403,0.4708191 0,0.015272 0.09475,0.2506622 0.2110722,0.5232134 0.1163188,0.2725508 0.2987608,0.6997793 0.4049948,0.948915 0.7779013,1.8243053 0.7708273,1.8092403 0.9234403,1.9844263 0.328195,0.376735 0.806603,0.514219 1.228835,0.352933 0.29487,-0.112637 0.497975,-0.280563 0.641792,-0.529763 0.152061,-0.26348 0.190157,-0.404094 0.191944,-0.7109587 9.69e-4,-0.1601029 -0.0096,-0.308538 -0.0277,-0.3813126 C 12.457715,9.3144139 11.827775,7.4581352 11.44809,6.3666829 11.278739,5.8798444 10.963198,4.9700666 10.76211,4.3880783 10.676033,4.1389425 10.519624,3.6774531 10.413841,3.362755 10.15185,2.5833344 10.090482,2.4397959 9.9442061,2.2595684 9.8503871,2.1439736 9.7831016,2.0880614 9.6526625,2.0172456 9.4347557,1.8989464 9.3100103,1.8673404 9.0570433,1.8673404 Z m 0.00858,0.4977438 c 0.2518122,-1.117e-4 0.4639982,0.1211132 0.6107854,0.349294 0.078493,0.1220144 0.3793753,0.9375574 0.3654193,0.9867554 l -6.61e-4,7.278e-4 v 7.275e-4 l -6.59e-4,7.278e-4 h -6.59e-4 -6.6e-4 c -0.01147,0.0023 -0.06029,-0.014907 -0.1101539,-0.039295 C 9.7636353,3.583105 9.6167233,3.558057 9.3868436,3.5716037 9.1330353,3.5865554 8.9720356,3.6429534 8.7806707,3.7840908 8.5167944,3.9787095 8.3722563,4.1943286 8.0669829,4.8472543 7.8170784,5.381752 7.4852937,6.0409538 7.1890546,6.5929963 6.7101267,7.4854834 6.5410705,7.7282582 6.3137646,7.8468158 6.2099135,7.90098 6.148075,7.9164644 6.0156253,7.9210409 5.7951266,7.9286314 5.7067983,7.8945098 5.5308189,7.7340232 5.4521661,7.6622944 5.294682,7.4511506 5.294682,7.4174755 v -7.277e-4 h 6.594e-4 v -7.277e-4 l 6.597e-4,-7.278e-4 c 0.013008,-0.00639 0.08745,-0.011646 0.1754538,-0.011646 0.3830194,0 0.6580293,-0.1324208 0.9458671,-0.4562654 C 6.6184735,6.7210754 6.7682573,6.4498529 7.2794199,5.3893875 7.4557272,5.0236202 8.119502,3.4965764 8.2952048,3.0527567 8.3974091,2.7945949 8.4378877,2.7207722 8.5359589,2.6088622 8.6914222,2.431457 8.8348402,2.3651865 9.0656182,2.3650842 Z m 0.4036778,1.6940756 c 0.1113516,0.00151 0.2224707,0.030869 0.3245234,0.088051 0.1993526,0.1117022 0.4445235,0.374707 0.6127685,0.657837 0.06977,0.1174068 0.153028,0.2965768 0.153028,0.3289184 v 7.277e-4 l -6.6e-4,7.277e-4 -6.59e-4,7.277e-4 -6.61e-4,7.277e-4 c -0.01321,0.00536 -0.07131,-0.00455 -0.139176,-0.024741 -0.195858,-0.058297 -0.5727639,-0.058135 -0.7677739,0 C 9.2980337,5.2172667 9.0440745,5.3888649 8.7951866,5.6899267 8.6443504,5.8723771 8.4992603,6.1171881 7.9792561,7.0696369 7.1949883,8.5061183 7.0448872,8.7318233 6.8091246,8.8313882 6.6045555,8.9177785 6.4276513,8.9110911 6.2438471,8.8095573 6.1561194,8.7610963 5.9047549,8.506321 5.9008548,8.4624466 V 8.4617188 8.460991 8.4602635 l 6.595e-4,-7.278e-4 V 8.458808 C 5.9119043,8.448781 5.9710633,8.439236 6.0413497,8.437705 6.4237518,8.4294201 6.7862951,8.1813547 7.0795609,7.7260185 7.3397652,7.3220188 7.7888057,6.4737945 8.3268655,5.3711952 8.765016,4.4733353 8.8008393,4.4101107 8.9455708,4.2731023 9.0968075,4.1299384 9.2837083,4.0566422 9.4692937,4.0591598 Z" /></g></svg>
